<svg width="32" height="32" fill="none" xmlns="http://www.w3.org/2000/svg"><path d="M4.109.001h23.784A4.118 4.118 0 0132 4.108v23.785a4.117 4.117 0 01-4.107 4.105H4.11A4.119 4.119 0 010 27.893V4.108A4.12 4.12 0 014.109.001zm19.203 3.554c-.794 0-1.441.65-1.441 1.442v3.447c0 .794.647 1.442 1.44 1.442h3.617c.792 0 1.44-.648 1.44-1.442V4.997c0-.792-.648-1.442-1.44-1.442h-3.616zm5.07 9.977h-2.815c.267.872.412 1.792.412 2.748 0 5.32-4.456 9.636-9.949 9.636-5.492 0-9.947-4.315-9.947-9.636 0-.956.146-1.876.412-2.748H3.557V27.05c0 .7.572 1.27 1.271 1.27h22.284c.7 0 1.27-.57 1.27-1.27V13.532zM16.03 9.704c-3.548 0-6.425 2.787-6.425 6.228 0 3.438 2.877 6.227 6.425 6.227 3.55 0 6.428-2.79 6.428-6.227 0-3.441-2.878-6.228-6.428-6.228z" fill="#fff"/></svg>