<svg width="73" height="83" viewBox="0 0 73 83" fill="none" xmlns="http://www.w3.org/2000/svg">
<path d="M8.87305 82.8282C7.494 82.8256 6.13936 82.4641 4.94239 81.7792C2.24707 80.2519 0.571487 77.287 0.571487 74.0684V8.93167C0.571487 5.70403 2.24707 2.74817 4.94239 1.22083C6.16786 0.516537 7.56002 0.154353 8.97335 0.172133C10.3867 0.189914 11.7693 0.587007 12.9767 1.32191L68.6461 34.645C69.8063 35.3724 70.7627 36.3827 71.4257 37.5809C72.0887 38.7791 72.4365 40.1261 72.4365 41.4955C72.4365 42.865 72.0887 44.2119 71.4257 45.4102C70.7627 46.6084 69.8063 47.6186 68.6461 48.3461L12.9677 81.6782C11.7321 82.4251 10.3169 82.8226 8.87305 82.8282Z" fill="#FF7600"/>
</svg>
