<svg viewBox="0 0 73 83" xmlns="http://www.w3.org/2000/svg" xmlns:xlink="http://www.w3.org/1999/xlink"><style>:root&gt;svg{display:none}:root&gt;svg:target{display:block}</style><svg class="aplay-btn" fill="none" viewBox="0 0 73 83" id="css--play-btn" xmlns="http://www.w3.org/2000/svg"><path d="M8.873 82.828a7.945 7.945 0 01-3.93-1.049C2.246 80.252.57 77.287.57 74.07V8.931c0-3.228 1.676-6.184 4.371-7.711a7.89 7.89 0 018.035.1l55.67 33.324a8.086 8.086 0 010 13.701l-55.68 33.332a7.975 7.975 0 01-4.094 1.15z" fill="#FF7600"/></svg><svg fill="none" viewBox="0 0 25 25" id="css--point-li" xmlns="http://www.w3.org/2000/svg"><path d="M12.5 0C5.607 0 0 5.607 0 12.5 0 19.392 5.607 25 12.5 25 19.392 25 25 19.392 25 12.5 25 5.607 19.392 0 12.5 0zm0 22.727c-5.64 0-10.227-4.588-10.227-10.227C2.273 6.86 6.86 2.273 12.5 2.273c5.64 0 10.227 4.588 10.227 10.227 0 5.64-4.588 10.227-10.227 10.227z" fill="#FF7600"/><path d="M17.187 8.08l-6.427 6.43-2.946-2.946a1.136 1.136 0 00-1.607 1.606l3.75 3.75a1.137 1.137 0 001.607 0l7.231-7.231a1.136 1.136 0 10-1.607-1.607z" fill="#FF7600"/></svg></svg>