<svg width="31" height="31" fill="none" xmlns="http://www.w3.org/2000/svg"><path d="M19.981.917h-8.947C2.86.917.917 2.861.917 11.019v8.947c0 8.173 1.929 10.118 10.102 10.118h8.947c8.173 0 10.117-1.93 10.117-10.102v-8.948c0-8.173-1.929-10.117-10.102-10.117zm4.482 20.812h-2.127c-.805 0-1.048-.654-2.491-2.097-1.261-1.215-1.793-1.367-2.112-1.367-.44 0-.562.122-.562.73v1.913c0 .517-.167.82-1.52.82a8.302 8.302 0 01-6.486-3.888 16.955 16.955 0 01-3.357-7.049c0-.319.122-.608.73-.608h2.126c.547 0 .744.244.957.806 1.033 3.038 2.795 5.681 3.51 5.681.273 0 .394-.122.394-.805v-3.13c-.091-1.427-.85-1.549-.85-2.065a.525.525 0 01.546-.487h3.342c.456 0 .608.228.608.775v4.223c0 .456.198.608.334.608.274 0 .486-.152.988-.653a17.501 17.501 0 002.613-4.345.916.916 0 01.926-.608h2.127c.638 0 .775.32.638.775a26.554 26.554 0 01-2.856 4.907c-.228.35-.319.532 0 .942.213.319.957.942 1.458 1.534a9.456 9.456 0 011.793 2.491c.182.593-.122.897-.73.897z" fill="#fff"/></svg>