<svg width="31" height="31" fill="none" xmlns="http://www.w3.org/2000/svg"><path d="M.923 30.084l1.971-7.245A14.517 14.517 0 01.917 15.5C.917 7.446 7.446.917 15.5.917S30.083 7.446 30.083 15.5c0 8.055-6.529 14.584-14.583 14.584a14.517 14.517 0 01-7.335-1.976L.923 30.084zm9.314-21.426a1.402 1.402 0 00-.541.146c-.158.09-.303.201-.429.332-.175.165-.274.308-.38.446a3.98 3.98 0 00-.824 2.447c.002.715.19 1.41.48 2.061.597 1.316 1.579 2.708 2.875 3.999.312.31.617.623.945.913a13.778 13.778 0 005.6 2.983l.83.127c.27.015.54-.005.81-.018a2.94 2.94 0 001.216-.337c.242-.129.355-.193.558-.321 0 0 .063-.041.182-.131.197-.146.318-.25.482-.42.12-.126.226-.273.306-.44.114-.239.227-.692.274-1.07.035-.289.025-.446.02-.544-.005-.156-.135-.318-.277-.386l-.848-.38s-1.27-.554-2.043-.907a.725.725 0 00-.259-.06.701.701 0 00-.55.186v-.003c-.008 0-.106.083-1.16 1.36a.51.51 0 01-.537.19 2.06 2.06 0 01-.278-.096c-.181-.076-.244-.105-.368-.159l-.007-.003a8.762 8.762 0 01-2.29-1.458c-.184-.16-.354-.336-.53-.505a9.184 9.184 0 01-1.487-1.849l-.086-.139a1.348 1.348 0 01-.148-.299c-.056-.214.088-.386.088-.386s.355-.388.52-.598c.137-.175.265-.356.383-.544.172-.277.226-.561.136-.781-.409-.998-.831-1.991-1.266-2.977-.086-.195-.341-.335-.573-.363a6.485 6.485 0 00-.236-.023 4.935 4.935 0 00-.588.005v.002z" fill="#fff"/></svg>