<svg width="31" height="31" viewBox="0 0 31 31" fill="none" xmlns="http://www.w3.org/2000/svg">
<path d="M19.9814 0.916992H11.0338C2.86107 0.916992 0.916656 2.8614 0.916656 11.019V19.9665C0.916656 28.1392 2.84594 30.0837 11.0186 30.0837H19.9661C28.1389 30.0837 30.0833 28.1544 30.0833 19.9816V11.0342C30.0833 2.8614 28.154 0.916992 19.9814 0.916992ZM24.4626 21.7286H22.3359C21.5308 21.7286 21.2877 21.0754 19.8446 19.6322C18.5837 18.417 18.0521 18.265 17.7331 18.265C17.2926 18.265 17.171 18.3866 17.171 18.9942V20.9083C17.171 21.4248 17.0039 21.7286 15.6519 21.7286C14.34 21.6404 13.0678 21.2419 11.94 20.5658C10.8123 19.8897 9.86128 18.9553 9.16535 17.8397C7.51322 15.7833 6.36369 13.3698 5.80818 10.7911C5.80818 10.4721 5.92968 10.1834 6.53735 10.1834H8.66405C9.21093 10.1834 9.40844 10.4265 9.62108 10.9886C10.654 14.0268 12.4163 16.67 13.1302 16.67C13.4036 16.67 13.5251 16.5485 13.5251 15.8649V12.7355C13.434 11.3076 12.6745 11.186 12.6745 10.6696C12.6845 10.5333 12.7472 10.4063 12.8493 10.3156C12.9514 10.2248 13.0849 10.1774 13.2213 10.1834H16.5634C17.0191 10.1834 17.171 10.4113 17.171 10.9582V15.1813C17.171 15.637 17.3685 15.7889 17.5052 15.7889C17.7786 15.7889 17.9913 15.637 18.4926 15.1357C19.5698 13.822 20.45 12.3585 21.1055 10.7911C21.1724 10.6025 21.2992 10.441 21.4665 10.3313C21.6338 10.2215 21.8325 10.1696 22.0321 10.1834H24.1588C24.7969 10.1834 24.9336 10.5024 24.7969 10.9582C24.023 12.6911 23.0656 14.3361 21.941 15.8649C21.7131 16.2143 21.622 16.3966 21.941 16.8067C22.1536 17.1257 22.898 17.7485 23.3993 18.341C24.1285 19.0683 24.7339 19.9098 25.1918 20.8324C25.3741 21.4248 25.0703 21.7286 24.4626 21.7286Z" fill="white"/>
</svg>
